<svg width="40" height="40" viewBox="0 0 40 40" fill="none" xmlns="http://www.w3.org/2000/svg">
<g clip-path="url(#clip0_2198_8916)">
<path d="M13.7421 22.1729V19.7392C11.2482 20.2623 9.36963 22.479 9.36963 25.1259C9.36963 28.1608 11.8393 30.6305 14.8742 30.6305C17.5211 30.6305 19.7378 28.7519 20.2609 26.258H17.8272C17.3704 27.4441 16.2187 28.2881 14.8742 28.2881C13.1307 28.2881 11.712 26.8694 11.712 25.1259C11.712 23.7814 12.556 22.6297 13.7421 22.1729Z" fill="#185A61"/>
<path d="M14.8742 14.9366C9.25557 14.9366 4.68481 19.5073 4.68481 25.1259C4.68481 30.7445 9.25557 35.3153 14.8742 35.3153C20.4927 35.3153 25.0635 30.7445 25.0635 25.1259C25.0635 24.8042 25.0487 24.4857 25.019 24.1718L23.3356 26.2581H22.6391C22.0895 30.0504 18.8172 32.9729 14.8742 32.9729C10.547 32.9729 7.02719 29.4531 7.02719 25.1259C7.02719 21.1829 9.9497 17.9106 13.742 17.3609V16.6645L15.8283 14.9811C15.5144 14.9514 15.1958 14.9366 14.8742 14.9366Z" fill="#185A61"/>
<path d="M26.9514 21.7763C27.2473 22.8429 27.4058 23.9664 27.4058 25.1259C27.4058 32.0359 21.7841 37.6576 14.8741 37.6576C7.96408 37.6576 2.34238 32.0359 2.34238 25.1259C2.34238 18.2159 7.96408 12.5942 14.8741 12.5942C16.0336 12.5942 17.1571 12.7527 18.2237 13.0486L20.381 11.3082C18.6773 10.6266 16.8183 10.2518 14.8741 10.2518C6.67265 10.2518 0 16.9245 0 25.1259C0 33.3274 6.67265 40 14.8741 40C23.0755 40 29.7482 33.3274 29.7482 25.1259C29.7482 23.1818 29.3734 21.3227 28.6918 19.619L26.9514 21.7763Z" fill="#185A61"/>
<path d="M36.2396 10.2635L33.0063 14.2705L37.1336 14.8998L39.9999 12.0328L36.2396 10.2635Z" fill="#185A61"/>
<path d="M29.7364 3.7603L27.9672 0L25.1001 2.86629L25.7294 6.99356L29.7364 3.7603Z" fill="#185A61"/>
<path d="M16.0843 17.7841V22.2049V22.2588L14.0457 24.2975L15.7025 25.9543L17.7411 23.9157H17.795H22.2159L34.3338 8.89556L31.1044 5.6662L16.0843 17.7841Z" fill="#185A61"/>
</g>
<defs>
<clipPath id="clip0_2198_8916">
<rect width="40" height="40" fill="white"/>
</clipPath>
</defs>
</svg>
