<svg width="20" height="20" viewBox="0 0 20 20" fill="none" xmlns="http://www.w3.org/2000/svg">
<path d="M9.70547 10.2946V20H0V10.2946H9.70547ZM6.58789 18.0539H7.75977V16.8821H6.58789V18.0539ZM6.58789 13.4121H7.75977V12.2403H6.58789V13.4121ZM4.2668 15.7332H5.43867V14.5614H4.2668V15.7332ZM1.94609 18.0539H3.11797V16.8821H1.94609V18.0539ZM1.94609 13.4121H3.11797V12.2403H1.94609V13.4121Z" fill="#3C404B"/>
<path d="M13.1371 0L20 6.86289L13.1371 13.7258L9.70548 10.2945L6.27423 6.86289L13.1371 0ZM13.1371 10.9738L13.9656 10.1453L13.1371 9.31641L12.3086 10.1453L13.1371 10.9738ZM13.1371 7.69141L13.9656 6.86289L13.1371 6.03437L12.3086 6.86289L13.1371 7.69141ZM13.1371 4.40937L13.9656 3.58047L13.1371 2.75195L12.3086 3.58086L13.1371 4.40937Z" fill="#3C404B"/>
</svg>
