<svg width="32" height="32" viewBox="0 0 32 32" fill="none" xmlns="http://www.w3.org/2000/svg">
<path d="M27.525 8.38188C27.525 6.64625 25.7568 5.4675 23.8193 5.9125L20.5937 6.93125L21.6125 3.70563C22.0568 1.76813 20.8787 0 19.1431 0C17.2769 0 16 1.0475 16 1.0475C16 1.0475 14.7231 0 12.8569 0C11.1219 0 9.9431 1.76813 10.3875 3.70563L11.4062 6.93125L8.1806 5.9125C6.2431 5.4675 4.47498 6.64625 4.47498 8.38188C4.47498 10.2481 5.5231 11.525 5.5231 11.525C5.5231 11.525 4.47498 12.8019 4.47498 14.6681C4.47498 16.4031 6.2431 17.5819 8.1806 17.1375L11.4062 16.1187L10.3875 19.3444C9.9431 21.2819 11.1219 23.05 12.8569 23.05C13.7539 23.05 14.5141 22.8078 15.0625 22.5563V32H16.9375V22.5563C17.4859 22.8078 18.246 23.05 19.1431 23.05C20.8781 23.05 22.0568 21.2819 21.6125 19.3444L20.5937 16.1187L23.8193 17.1375C25.7568 17.5819 27.525 16.4031 27.525 14.6681C27.525 12.8019 26.4769 11.525 26.4769 11.525C26.4769 11.525 27.525 10.2481 27.525 8.38188ZM12.3187 12.4625H9.45248V10.5875H12.3187V12.4625ZM16.9375 18.0725H15.0625V15.2056H16.9375V18.0725ZM16.9375 7.84375H15.0625V4.9775H16.9375V7.84375ZM22.5475 12.4625H19.6812V10.5875H22.5475V12.4625Z" fill="#C7EACF"/>
</svg>
