<svg width="40" height="40" viewBox="0 0 40 40" fill="none" xmlns="http://www.w3.org/2000/svg">
<g clip-path="url(#clip0_2198_9053)">
<path d="M23.0556 6.30158C18.588 6.25869 15.5823 11.1314 17.6056 15.0906C20.3219 12.6919 24.6127 14.6628 24.5564 18.2844C31.4041 16.3782 30.2337 6.48682 23.0556 6.30158Z" fill="white"/>
<path d="M34.6094 6.28986H40V24.5164H34.6094V6.28986Z" fill="white"/>
<path d="M20.5766 16.3914C19.9952 16.3214 19.4508 16.5503 19.0359 16.9516C19.0359 16.9516 15.2403 20.2121 14.6023 20.7602C14.2219 20.317 13.4562 19.4251 13.0758 18.982C13.7292 18.421 15.1269 17.2201 15.7883 16.6516C14.8219 15.0286 14.4317 13.0412 14.7172 11.1555H9.56328L2.32344 20.5938H0V33.7102H2.89922C5.75578 33.6873 7.95938 31.9364 8.94609 29.3055C11.8092 29.4895 14.3727 28.1405 15.5602 25.4797L15.9242 24.65C16.7216 23.9348 20.9826 20.1393 21.6742 19.5117C22.752 18.4305 22.1055 16.552 20.5766 16.3914Z" fill="white"/>
</g>
<defs>
<clipPath id="clip0_2198_9053">
<rect width="40" height="40" fill="white"/>
</clipPath>
</defs>
</svg>
