<svg width="40" height="40" viewBox="0 0 40 40" fill="none" xmlns="http://www.w3.org/2000/svg">
<g clip-path="url(#clip0_2198_9074)">
<path d="M21.1414 34.2969C20.5742 32.8297 20.2773 31.2547 20.2773 29.6344V27.4094H14.7617C15.148 29.1994 16.0516 30.1638 17.35 31.3633V34.2969H21.1414Z" fill="white"/>
<path d="M19.6351 14.7477C19.077 15.6781 18.8648 16.8363 19.0484 17.9203C19.2085 18.8781 19.6601 19.7602 20.3601 20.4602L22.621 22.7211C22.6212 24.0543 22.6209 26.0924 22.621 27.4094C22.5909 29.9151 22.5379 32.0086 23.7007 34.2969H31.6101V17.6305L26.3991 12.4195V18.1969L27.9374 19.7352L26.2804 21.3922C26.2804 21.3922 20.2613 15.3741 19.6351 14.7477Z" fill="white"/>
<path d="M20.2773 23.6922L18.7031 22.1172C17.4738 20.8897 16.7472 19.2745 16.6523 17.5375L15.0805 19.1094L10.2102 14.2391C9.45078 13.4805 9.03281 12.4711 9.03281 11.3977C9.03281 10.3242 9.45078 9.31484 10.2102 8.55547C11.4504 7.27086 13.561 7.00844 15.0805 7.92578C18.3099 6.07 22.0978 9.17578 20.9102 12.7078C21.5537 13.3514 23.3867 15.1844 24.0555 15.8531C24.0555 12.4944 24.0555 3.47297 24.0555 0H6.10547V25.0656H20.2773V23.6922Z" fill="white"/>
<path d="M15.9245 10.2125L15.0799 11.0555L14.237 10.2125C13.9205 9.8961 13.4995 9.72188 13.0518 9.72188C12.1516 9.70328 11.3579 10.497 11.3768 11.3977C11.3768 11.8445 11.551 12.2656 11.8674 12.582L15.0807 15.7953L18.294 12.582C18.6104 12.2656 18.7846 11.8445 18.7846 11.3977C18.7846 10.95 18.6104 10.5289 18.294 10.2125C17.6703 9.56297 16.5484 9.56242 15.9245 10.2125Z" fill="white"/>
<path d="M14.7148 36.6406V40H33.8945C33.8945 39.3176 33.8945 37.3505 33.8945 36.6406C33.8945 36.6406 20.1005 36.6406 14.7148 36.6406Z" fill="white"/>
</g>
<defs>
<clipPath id="clip0_2198_9074">
<rect width="40" height="40" fill="white"/>
</clipPath>
</defs>
</svg>
