<svg width="40" height="40" viewBox="0 0 40 40" fill="none" xmlns="http://www.w3.org/2000/svg">
<g clip-path="url(#clip0_2198_9060)">
<path d="M19.9625 16.9416C17.4529 9.86642 22.804 2.02367 30.2617 1.73494C24.2941 -2.56472 15.7197 1.86696 15.7801 9.23842C15.7528 12.3196 17.3803 15.2806 19.9625 16.9416Z" fill="white"/>
<path d="M25.3184 5.94711C23.4131 7.40247 22.0928 9.58511 21.7749 12.0771H25.2035C25.4598 10.8319 26.1168 9.73041 27.0331 8.91563L25.3184 5.94711Z" fill="white"/>
<path d="M29.0609 7.74072C30.2124 7.34864 31.5719 7.35114 32.7137 7.74072L34.4285 4.77142C32.2292 3.82501 29.5191 3.83423 27.3462 4.77142L29.0609 7.74072Z" fill="white"/>
<path d="M36.5712 12.0771H39.9999C39.6819 9.5851 38.3609 7.40167 36.4556 5.94632L34.7417 8.91562C35.658 9.7304 36.315 10.8319 36.5712 12.0771Z" fill="white"/>
<path d="M25.3988 15.1315C25.3192 14.9011 25.2535 14.6636 25.2035 14.4207H21.7749C22.091 16.8838 23.3796 19.0652 25.3184 20.5506L27.0331 17.5813C26.2956 16.9259 25.7262 16.0846 25.3988 15.1315Z" fill="white"/>
<path d="M30.8876 22.4365C32.1422 22.4365 33.3382 22.1841 34.4287 21.7264L32.714 18.7563C31.577 19.1467 30.1982 19.1467 29.0612 18.7563L27.3457 21.7264C28.4362 22.1834 29.633 22.4365 30.8876 22.4365Z" fill="white"/>
<path d="M34.7417 17.5813L36.4556 20.5506C38.3609 19.0961 39.6819 16.9126 39.9999 14.4207H36.5712C36.315 15.6659 35.658 16.7666 34.7417 17.5813Z" fill="white"/>
<path d="M29.0054 16.1494C30.0403 16.8509 31.5461 16.8902 32.6161 16.2432C34.9114 14.9343 34.9112 11.5629 32.6161 10.2546C31.6601 9.67361 30.3094 9.63854 29.3226 10.1647C26.9575 11.3511 26.7786 14.7206 29.0054 16.1494Z" fill="white"/>
<path d="M38.0681 31.4881C37.6846 31.4303 37.3018 31.5256 36.9909 31.7576L30.082 36.9056H23.413V36.8978C22.4233 36.8924 21.4358 36.5127 20.6828 35.7596L14.9067 29.9843L16.5644 28.3266L22.3397 34.1027C23.3054 35.073 24.9921 34.3768 24.9864 33.0059C24.9864 32.5919 24.8246 32.2021 24.5317 31.9091L17.5768 24.9542H6.56201V32.8286L16.9464 39.9523H30.8015L38.7126 34.0699C39.7313 33.3136 39.3265 31.6717 38.0681 31.4881Z" fill="white"/>
<path d="M0 22.313H4.21842V35.1988H0V22.313Z" fill="white"/>
</g>
<defs>
<clipPath id="clip0_2198_9060">
<rect width="40" height="40" fill="white"/>
</clipPath>
</defs>
</svg>
