<svg width="40" height="40" viewBox="0 0 40 40" fill="none" xmlns="http://www.w3.org/2000/svg">
<g clip-path="url(#clip0_2198_9041)">
<path d="M38.0711 31.5183C37.6875 31.4605 37.3047 31.5558 36.9937 31.7879L30.0844 36.9363H23.4148V36.9285C22.425 36.923 21.4375 36.5433 20.6844 35.7902L14.9078 30.0144L16.5656 28.3566L22.3414 34.1332C22.9453 34.7371 23.9289 34.7371 24.5344 34.1324C24.8266 33.8402 24.9883 33.4504 24.9883 33.0363C24.9883 32.6222 24.8266 32.2324 24.5336 31.9394L17.5781 24.9839H6.5625V32.8589L16.9477 39.9832H30.8039L38.7156 34.1004C39.3469 33.63 39.4836 32.7308 39.0203 32.0941C38.7914 31.7808 38.4547 31.5761 38.0711 31.5183Z" fill="white"/>
<path d="M0 22.3426H4.21875V35.2293H0V22.3426Z" fill="white"/>
<path d="M21.7485 12.5465H25.2892V22.9519H21.7485V12.5465Z" fill="white"/>
<path d="M33.5171 12.5465H37.0577V22.9519H33.5171V12.5465Z" fill="white"/>
<path d="M18.8062 6.66211H25.289V10.2027H18.8062V6.66211Z" fill="white"/>
<path d="M33.5171 6.66211H39.9999V10.2027H33.5171V6.66211Z" fill="white"/>
<path d="M28.0141 4.31835H30.7922C31.0922 3.52928 31.6891 2.866 32.4758 2.49569L33.2368 2.1371L32.2391 0.0167847L31.4774 0.374597C30.6485 0.765222 29.9422 1.34569 29.4032 2.05038C28.8641 1.34569 28.1579 0.765222 27.329 0.374597L26.568 0.0167847L25.5696 2.1371L26.3313 2.49569C27.1172 2.866 27.7141 3.52928 28.0141 4.31835Z" fill="white"/>
<path d="M27.6328 6.66211H31.1734V22.952H27.6328V6.66211Z" fill="white"/>
</g>
<defs>
<clipPath id="clip0_2198_9041">
<rect width="40" height="40" fill="white"/>
</clipPath>
</defs>
</svg>
