<svg width="40" height="40" viewBox="0 0 40 40" fill="none" xmlns="http://www.w3.org/2000/svg">
<path d="M32.845 13.8672C33.1419 13.1797 33.0013 12.3828 32.4857 11.8359L21.8607 0.585938C21.5091 0.210937 21.0169 0 20.5013 0C19.9857 0 19.4935 0.210937 19.1419 0.585938L8.5169 11.8359C8.00128 12.3828 7.86065 13.1797 8.15753 13.8672C8.4544 14.5547 9.12628 15 9.87628 15H15.5013V37.5C15.5013 38.8828 16.6185 40 18.0013 40H23.0013C24.3841 40 25.5013 38.8828 25.5013 37.5V15H31.1263C31.8763 15 32.5482 14.5547 32.845 13.8672Z" fill="#6A8E9C"/>
</svg>
