<svg width="32" height="32" viewBox="0 0 32 32" fill="none" xmlns="http://www.w3.org/2000/svg">
<g clip-path="url(#clip0_2125_6444)">
<path d="M9.5702 32C12.9947 32 16.0043 30.1917 17.6957 27.4801H1.44473C3.13612 30.1917 6.14571 32 9.5702 32Z" fill="#2DB155"/>
<path d="M9.57021 12.8597C6.22015 12.8597 3.26717 14.5903 1.55682 17.204H17.5837C15.8733 14.5902 12.9203 12.8597 9.57021 12.8597Z" fill="#2DB155"/>
<path d="M19.1405 22.4298C19.1405 21.2496 18.9252 20.1188 18.5326 19.074H0.607827C0.215304 20.1188 0 21.2496 0 22.4298C0 23.5443 0.192116 24.6146 0.543933 25.6101H18.5965C18.9483 24.6146 19.1405 23.5443 19.1405 22.4298Z" fill="#2DB155"/>
<path d="M22.4298 13.3176C24.4995 13.3176 26.1773 11.6399 26.1773 9.5702C26.1773 7.50054 24.4995 5.82275 22.4298 5.82275C20.3602 5.82275 18.6824 7.50054 18.6824 9.5702C18.6824 11.6399 20.3602 13.3176 22.4298 13.3176Z" fill="#2DB155"/>
<path d="M22.4298 19.1405C27.7068 19.1405 32 14.8473 32 9.57026C32 4.29325 27.7068 0 22.4298 0C17.1528 0 12.8596 4.29318 12.8596 9.5702C12.8596 10.266 12.9246 10.9017 13.0598 11.5345C16.5654 12.6598 19.339 15.4331 20.465 18.9384C21.1073 19.0719 21.7659 19.1405 22.4298 19.1405ZM16.8123 9.5702C16.8123 6.47272 19.3323 3.95271 22.4298 3.95271C25.5273 3.95271 28.0473 6.47272 28.0473 9.5702C28.0473 12.6677 25.5273 15.1877 22.4298 15.1877C19.3323 15.1877 16.8123 12.6677 16.8123 9.5702Z" fill="#2DB155"/>
</g>
<defs>
<clipPath id="clip0_2125_6444">
<rect width="32" height="32" fill="white"/>
</clipPath>
</defs>
</svg>
